<svg width="1060" height="604" viewBox="0 0 1060 604" fill="none" xmlns="http://www.w3.org/2000/svg">
<g clip-path="url(#clip0_2623_3953)">
<path d="M1050.55 532.711L1027.97 464.618C1027.97 464.618 1052.81 489.437 1052.81 509.801L1048.35 462.709C1048.35 462.709 1061.09 479.891 1059.82 505.983C1058.54 532.075 1050.55 532.711 1050.55 532.711Z" fill="#E6E6E6"/>
<path d="M565.554 470.709L543.513 404.253C543.513 404.253 567.757 428.475 567.757 448.35L563.406 402.39C563.406 402.39 575.839 419.159 574.595 444.623C573.352 470.088 565.554 470.709 565.554 470.709Z" fill="#E6E6E6"/>
<path d="M909.584 501.376C909.621 545.092 822.837 531.645 716.592 531.737C610.348 531.828 524.876 545.424 524.838 501.708C524.8 457.991 611.553 448.409 717.798 448.317C824.042 448.225 909.546 457.66 909.584 501.376Z" fill="#828282"/>
<path d="M1039.98 531.711H0V533.711H1039.98V531.711Z" fill="#3F3D56"/>
<path d="M835.124 442.337H821.234L814.623 388.811H835.124V442.337Z" fill="#A0616A"/>
<path d="M809.77 438.372H838.101V455.223H794.446V453.681C794.446 449.621 796.061 445.727 798.934 442.856C801.808 439.985 805.706 438.372 809.77 438.372V438.372Z" fill="#2F2E41"/>
<path d="M937.22 521.339H923.33L916.72 467.812H937.22V521.339Z" fill="#A0616A"/>
<path d="M911.866 517.375H940.197V534.226H896.542V532.684C896.542 528.624 898.157 524.73 901.031 521.859C903.904 518.988 907.802 517.375 911.866 517.375V517.375Z" fill="#2F2E41"/>
<path d="M1001.29 362.321C1002.25 361.158 1002.94 359.798 1003.32 358.338C1003.7 356.877 1003.75 355.352 1003.47 353.87C1003.2 352.387 1002.6 350.983 1001.72 349.756C1000.84 348.529 999.706 347.51 998.391 346.77L966.13 215.473L945.503 224.339L983.875 351.293C982.777 353.583 982.557 356.195 983.258 358.636C983.96 361.077 985.533 363.176 987.679 364.535C989.826 365.894 992.397 366.42 994.905 366.012C997.414 365.604 999.685 364.291 1001.29 362.321V362.321Z" fill="#A0616A"/>
<path d="M976.128 96.9666C974.977 95.7641 973.576 94.8285 972.024 94.2256C970.471 93.6226 968.805 93.3671 967.143 93.477C965.481 93.5869 963.864 94.0595 962.404 94.8615C960.945 95.6635 959.68 96.7755 958.697 98.1191L908.764 103.846L916.36 123.088L961.771 114.597C964.139 116.097 966.976 116.677 969.744 116.226C972.512 115.776 975.018 114.327 976.788 112.153C978.558 109.98 979.468 107.234 979.346 104.435C979.225 101.636 978.08 98.9786 976.128 96.9666V96.9666Z" fill="#A0616A"/>
<path d="M893.843 348.705L915.632 512.084L942.751 506.506C942.751 506.506 938.763 387.521 952.322 373.176C965.882 358.832 934.882 333.704 934.882 333.704L893.843 348.705Z" fill="#2F2E41"/>
<path d="M902.852 303.703L892.842 318.704C892.842 318.704 815.77 286.703 815.77 337.704C815.77 388.705 811.359 423.317 809.764 425.707C808.169 428.098 828.219 434.301 837.79 432.708C837.79 432.708 849.598 350.486 848.801 345.705C848.801 345.705 924.406 382.739 938.763 379.552C953.12 376.364 956.512 365.08 958.905 358.705C961.297 352.33 957.904 301.703 957.904 301.703L910.049 287.112L902.852 303.703Z" fill="#2F2E41"/>
<path d="M904.202 213.64L901.349 210.219C901.349 210.219 869.395 138.389 881.949 119.006C894.502 99.6229 949.28 96.7725 950.992 97.9127C952.704 99.0528 946.903 113.856 950.897 120.697C950.897 120.697 908.463 129.889 905.61 131.029C902.757 132.169 927.597 174.304 927.597 174.304L924.744 199.958L904.202 213.64Z" fill="#CCCCCC"/>
<path d="M960.121 178.294C960.121 178.294 930.45 181.715 929.309 181.715C928.167 181.715 927.597 174.304 927.597 174.304L901.349 210.219C901.349 210.219 888.418 314.414 891.841 312.703C895.265 310.993 958.409 320.815 958.98 316.255C959.551 311.694 958.409 288.891 960.121 287.75C961.833 286.61 989.793 215.92 989.793 215.92C989.793 215.92 986.94 201.098 977.239 195.967C967.539 190.836 960.121 178.294 960.121 178.294Z" fill="#CCCCCC"/>
<path d="M980.663 206.229L989.793 215.92C989.793 215.92 1003.36 327.284 995.94 330.704C988.522 334.125 973.919 333.704 973.919 333.704L959.551 280.909L980.663 206.229Z" fill="#CCCCCC"/>
<path d="M931.609 171.242C946.113 171.242 957.872 159.494 957.872 145.002C957.872 130.511 946.113 118.763 931.609 118.763C917.104 118.763 905.345 130.511 905.345 145.002C905.345 159.494 917.104 171.242 931.609 171.242Z" fill="#A0616A"/>
<path d="M925.446 149.097C925.091 143.652 918.216 143.466 912.755 143.414C907.294 143.363 900.765 143.557 897.675 139.059C895.633 136.086 896.023 131.958 897.71 128.77C899.397 125.583 902.172 123.131 904.902 120.773C911.95 114.684 919.214 108.643 927.676 104.746C936.138 100.848 946.054 99.2734 954.829 102.402C965.61 106.245 980.183 126.029 981.441 137.395C982.699 148.761 978.153 160.348 970.489 168.842C962.825 177.336 945.283 173.909 934.244 176.93C940.955 167.44 936.532 150.197 925.78 145.765L925.446 149.097Z" fill="#2F2E41"/>
<path d="M691.374 488.51C726.195 488.51 754.423 460.308 754.423 425.519C754.423 390.73 726.195 362.527 691.374 362.527C656.553 362.527 628.325 390.73 628.325 425.519C628.325 460.308 656.553 488.51 691.374 488.51Z" fill="#004F5D"/>
<path d="M649.269 358.051C640.531 358.052 631.98 355.522 624.651 350.768C617.322 346.014 611.53 339.239 607.974 331.264L507.928 106.165C504.614 98.7083 502.861 90.6535 502.777 82.4954C502.694 74.3373 504.281 66.2482 507.441 58.7255C510.602 51.2028 515.269 44.4053 521.155 38.7509C527.042 33.0964 534.024 28.7045 541.672 25.8451C549.32 22.9856 557.472 21.7191 565.628 22.1233C573.784 22.5275 581.771 24.5939 589.098 28.1955C596.425 31.7971 602.938 36.8578 608.236 43.0665C613.533 49.2752 617.504 56.5008 619.904 64.299L692.349 299.719C694.424 306.458 694.887 313.588 693.702 320.538C692.518 327.488 689.718 334.063 685.529 339.736C681.339 345.409 675.876 350.021 669.579 353.202C663.281 356.383 656.325 358.044 649.269 358.051H649.269Z" fill="#004F5D"/>
<path d="M110.756 243.965L110.651 244.233C110.58 244.412 110.635 244.536 110.814 244.606L155.06 261.938C156.669 262.569 157.754 262.169 158.315 260.739L183.777 195.861C183.848 195.682 183.793 195.557 183.614 195.487C183.257 195.347 183.043 195.367 182.973 195.545L110.756 243.965ZM71.3447 270.283C67.2329 268.673 64.2536 265.753 62.4069 261.524C60.739 257.365 60.7117 253.23 62.325 249.12L64.3241 244.026C68.2522 234.017 74.8143 225.968 84.0106 219.879L191.868 149.231C200.994 143.321 210.563 142.326 220.574 146.248L233.982 151.5C238.094 153.111 240.984 155.996 242.652 160.154C244.498 164.383 244.615 168.553 243.002 172.664L201.757 277.756C201.196 279.186 201.72 280.216 203.329 280.846L214.055 285.048C218.167 286.659 221.146 289.578 222.993 293.807C224.84 298.036 224.956 302.206 223.343 306.317L221.344 311.411C219.731 315.521 216.808 318.501 212.577 320.348C208.345 322.196 204.173 322.315 200.062 320.704L189.335 316.503C187.726 315.872 186.606 316.361 185.975 317.97L178.189 337.809C176.575 341.92 173.653 344.899 169.421 346.747C165.369 348.665 161.286 348.818 157.174 347.208L143.766 341.955C139.655 340.345 136.675 337.425 134.829 333.196C133.161 329.037 133.134 324.903 134.747 320.792L142.533 300.953C143.164 299.344 142.675 298.225 141.066 297.595L71.3447 270.283ZM382.132 263.353C380.984 251.562 375.047 243.566 364.32 239.364C353.594 235.162 343.71 236.961 334.667 244.76C325.804 252.629 316.602 268.717 307.063 293.025C297.523 317.332 293.327 335.381 294.475 347.171C295.801 359.032 301.828 367.064 312.554 371.265C323.281 375.467 333.076 373.633 341.939 365.764C350.981 357.965 360.272 341.912 369.812 317.605C379.352 293.298 383.458 275.214 382.132 263.353ZM366.699 405.157C347.834 415.913 325.261 416.144 298.981 405.849C272.702 395.555 256.212 380.023 249.513 359.253C242.993 338.552 246.712 310.419 260.671 274.852C274.629 239.285 291.042 216.124 309.907 205.368C328.951 194.682 351.613 194.486 377.893 204.78C404.173 215.074 420.573 230.571 427.093 251.272C433.792 272.042 430.162 300.21 416.204 335.777C402.245 371.344 385.744 394.471 366.699 405.157ZM471.441 335.145C468.167 336.131 465.38 335.348 463.081 332.798C460.96 330.318 460.532 327.469 461.794 324.252L469.475 304.681C473.473 294.494 480.741 288.061 491.28 285.385L526.15 276.155C536.509 273.409 546.874 274.066 557.242 278.128L574.137 284.746C578.248 286.356 581.228 289.276 583.074 293.505C584.921 297.734 585.038 301.904 583.424 306.014L518.611 471.159C516.998 475.27 514.076 478.249 509.844 480.097C505.612 481.945 501.441 482.064 497.329 480.453L480.435 473.835C476.323 472.225 473.344 469.305 471.497 465.076C469.65 460.847 469.534 456.677 471.147 452.567L522.282 322.274L522.014 322.169L521.746 322.064L471.441 335.145Z" fill="#C4852B"/>
</g>
<defs>
<clipPath id="clip0_2623_3953">
<rect width="1060" height="604" fill="white"/>
</clipPath>
</defs>
</svg>
